<svg xmlns="http://www.w3.org/2000/svg" viewBox="0 0 16 16" width="16" height="16">
  <path fill="currentcolor"
    d="M14.233 8.515a.166.166 0 0 0 0 .305c.647.283 1.1.93 1.1 1.68 0 .752-.453 1.398-1.1 1.682a.166.166 0 0 0 0 .305A1.833 1.833 0 1 1 11.82 14.9a.17.17 0 0 0-.153-.1.17.17 0 0 0-.154.1 1.83 1.83 0 0 1-1.68 1.1 1.83 1.83 0 0 1-1.68-1.1.17.17 0 0 0-.153-.1.17.17 0 0 0-.153.1 1.83 1.83 0 0 1-1.68 1.1 1.83 1.83 0 0 1-1.68-1.1.17.17 0 0 0-.154-.1.17.17 0 0 0-.153.1 1.833 1.833 0 1 1-2.413-2.413.166.166 0 0 0 0-.305 1.84 1.84 0 0 1-1.1-1.682c0-.75.453-1.397 1.1-1.68a.166.166 0 0 0 0-.305A1.834 1.834 0 0 1 2.5 5c.752 0 1.398.453 1.68 1.102.027.06.087.1.153.1.067 0 .127-.04.154-.1a1.832 1.832 0 0 1 3.36 0c.026.06.086.1.153.1s.127-.04.153-.1a1.832 1.832 0 0 1 3.36 0 .168.168 0 0 0 .307 0 1.832 1.832 0 0 1 3.513.731c0 .752-.453 1.399-1.1 1.682m-9.746-.948a.17.17 0 0 0-.154-.1.17.17 0 0 0-.153.1 1.84 1.84 0 0 1-.947.948.166.166 0 0 0 0 .305c.424.185.762.525.947.948.027.06.087.1.153.1.067 0 .127-.04.154-.1.185-.423.523-.763.946-.948a.166.166 0 0 0 0-.305 1.84 1.84 0 0 1-.946-.948m7.333 3.666a.17.17 0 0 0-.153-.1.17.17 0 0 0-.154.1 1.84 1.84 0 0 1-.946.949.166.166 0 0 0 0 .305c.423.185.761.525.946.948a.168.168 0 0 0 .307 0 1.84 1.84 0 0 1 .947-.948.166.166 0 0 0 0-.305 1.84 1.84 0 0 1-.947-.949m0-3.666a.17.17 0 0 0-.153-.1.17.17 0 0 0-.154.1 1.84 1.84 0 0 1-.946.948.166.166 0 0 0 0 .305c.423.185.761.525.946.948a.168.168 0 0 0 .307 0 1.84 1.84 0 0 1 .947-.948.166.166 0 0 0 0-.305 1.84 1.84 0 0 1-.947-.948m-3.667 0a.17.17 0 0 0-.153-.1.17.17 0 0 0-.153.1 1.84 1.84 0 0 1-.947.948.166.166 0 0 0 0 .305c.423.185.762.525.947.948.026.06.086.1.153.1s.127-.04.153-.1c.185-.423.524-.763.947-.948a.166.166 0 0 0 0-.305 1.84 1.84 0 0 1-.947-.948m-3.666 3.666a.17.17 0 0 0-.154-.1.17.17 0 0 0-.153.1 1.84 1.84 0 0 1-.947.949.166.166 0 0 0 0 .305c.424.185.762.525.947.948.027.06.087.1.153.1.067 0 .127-.04.154-.1a1.84 1.84 0 0 1 .946-.948.166.166 0 0 0 0-.305 1.84 1.84 0 0 1-.946-.949m3.666 0a.17.17 0 0 0-.153-.1.17.17 0 0 0-.153.1 1.84 1.84 0 0 1-.947.949.166.166 0 0 0 0 .305c.423.185.762.525.947.948.026.06.086.1.153.1s.127-.04.153-.1c.185-.423.524-.763.947-.948a.166.166 0 0 0 0-.305 1.84 1.84 0 0 1-.947-.949M11.82 2.567a.17.17 0 0 0-.153-.1.17.17 0 0 0-.154.1 1.83 1.83 0 0 1-1.68 1.1 1.83 1.83 0 0 1-1.68-1.1.17.17 0 0 0-.153-.1.17.17 0 0 0-.153.1 1.83 1.83 0 0 1-1.68 1.1 1.83 1.83 0 0 1-1.68-1.1.17.17 0 0 0-.154-.1.17.17 0 0 0-.153.1 1.833 1.833 0 1 1 0-1.465c.027.06.087.1.153.1.067 0 .127-.04.154-.1a1.832 1.832 0 0 1 3.36 0c.026.06.086.1.153.1s.127-.04.153-.1a1.832 1.832 0 0 1 3.36 0 .168.168 0 0 0 .307 0 1.832 1.832 0 0 1 3.513.731 1.833 1.833 0 0 1-3.513.734" />
</svg>
