<svg xmlns="http://www.w3.org/2000/svg" width="16" height="16" fill="none"><path fill="currentColor" d="m10.273 2.513-.921-.944.715-.698.622.637.89-.011a2.89 2.89 0 0 1 2.924 2.924l-.01.89.636.622a2.89 2.89 0 0 1 0 4.134l-.637.622.011.89a2.89 2.89 0 0 1-2.924 2.924l-.89-.01-.622.636a2.89 2.89 0 0 1-4.134 0l-.622-.637-.89.011a2.89 2.89 0 0 1-2.924-2.924l.01-.89-.636-.622a2.89 2.89 0 0 1 0-4.134l.637-.622-.011-.89a2.89 2.89 0 0 1 2.924-2.924l.89.01.622-.636a2.89 2.89 0 0 1 4.134 0l-.715.698a1.89 1.89 0 0 0-2.704 0l-.92.944-1.32-.016a1.89 1.89 0 0 0-1.911 1.912l.016 1.318-.944.921a1.89 1.89 0 0 0 0 2.704l.944.92-.016 1.32a1.89 1.89 0 0 0 1.912 1.911l1.318-.016.921.944a1.89 1.89 0 0 0 2.704 0l.92-.944 1.32.016a1.89 1.89 0 0 0 1.911-1.912l-.016-1.318.944-.921a1.89 1.89 0 0 0 0-2.704l-.944-.92.016-1.32a1.89 1.89 0 0 0-1.912-1.911z"/><path fill="currentColor" d="M6.146 6.146a.5.5 0 0 1 .708 0L8 7.293l1.146-1.147a.5.5 0 1 1 .708.708L8.707 8l1.147 1.146a.5.5 0 0 1-.708.708L8 8.707 6.854 9.854a.5.5 0 0 1-.708-.708L7.293 8 6.146 6.854a.5.5 0 0 1 0-.708"/></svg>