<svg xmlns="http://www.w3.org/2000/svg" width="16" height="16" fill="none"><path fill="currentColor" d="M12.859 1.27a.5.5 0 0 1 .707 0l1.414 1.414a.5.5 0 0 1 0 .707l-1.06 1.061-2.122-2.121zM11.091 3.038l2.122 2.12-5.56 5.56a.5.5 0 0 1-.232.131l-2.29.573a.25.25 0 0 1-.303-.303l.573-2.29a.5.5 0 0 1 .131-.232zM8 0q-.264 0-.523.017l.064.998a7 7 0 0 1 .918 0l.064-.998A8 8 0 0 0 8 0M6.44.152q-.52.104-1.012.27l.321.948q.43-.147.884-.237zM4.46.824q-.471.233-.905.524l.556.83q.38-.254.793-.458zM2.725 1.985q-.394.346-.74.74l.752.66q.303-.345.648-.648zM1.348 3.555q-.292.433-.524.906l.896.443q.205-.413.459-.793zM.423 5.428a8 8 0 0 0-.27 1.011l.98.194q.09-.453.237-.884zM.017 7.477a8 8 0 0 0 0 1.046l.998-.064a7 7 0 0 1 0-.918zM16 8a8 8 0 0 0-.017-.523l-.998.064a7 7 0 0 1 0 .918l.998.064A8 8 0 0 0 16 8M.152 9.56q.104.52.27 1.012l.948-.321a7 7 0 0 1-.237-.884zM15.577 10.572q.168-.493.27-1.011l-.98-.194q-.09.453-.237.884zM.824 11.54a8 8 0 0 0 .524.905l.83-.556a7 7 0 0 1-.458-.793zM14.652 12.445q.292-.433.524-.906l-.896-.443q-.205.413-.459.793zM1.985 13.275q.346.394.74.74l.66-.752a7 7 0 0 1-.648-.648zM13.275 14.015q.394-.346.74-.74l-.752-.66q-.302.346-.648.648zM11.54 15.176q.471-.233.905-.524l-.556-.83q-.38.254-.793.458zM3.555 14.652q.433.292.906.524l.443-.896a7 7 0 0 1-.793-.459zM5.428 15.577q.493.168 1.011.27l.194-.98a7 7 0 0 1-.884-.237zM9.56 15.848a8 8 0 0 0 1.012-.27l-.321-.948a7 7 0 0 1-.884.237zM7.477 15.983a8 8 0 0 0 1.046 0l-.064-.998a7 7 0 0 1-.918 0z"/></svg>