<svg xmlns="http://www.w3.org/2000/svg" viewBox="0 0 16 16" width="16" height="16">
  <path fill="currentColor"
    d="m8 16c-4.411 0-8-3.589-8-8s3.589-8 8-8c.276 0 .5.224.5.5s-.224.5-.5.5c-3.86 0-7 3.14-7 7s3.14 7 7 7 7-3.141 7-7c0-.276.224-.5.5-.5s.5.224.5.5c0 4.411-3.589 8-8 8z" />
  <path fill="currentColor"
    d="m12.859 1.27c.195-.195.512-.195.707 0l1.414 1.414c.195.195.195.512 0 .707l-1.06 1.06-2.122-2.12zm-1.768 1.768 2.121 2.121-5.559 5.559c-.064.064-.144.11-.232.132l-2.29.572c-.134.033-.27-.048-.303-.182-.01-.04-.01-.081 0-.121l.573-2.29c.022-.088.067-.168.131-.232l5.559-5.559z" />
</svg>
