<svg xmlns="http://www.w3.org/2000/svg" viewBox="0 0 787 96"><g fill="currentColor"><path d="M137.512 57.201v18.486h-12.558v-55.38h24.726q8.502 0 12.87 4.212 4.446 4.212 4.446 11.7 0 6.318-3.354 11.076-2.181 3.115-5.676 5.955l9.42 19.473v2.964h-12.324l-9.809-18.486zm0-26.988v18.018h11.769a11.7 11.7 0 0 0 3.519-4.056q1.56-2.808 1.56-6.396 0-3.666-1.716-5.616-1.638-1.95-4.758-1.95zm74.718 45.474h-34.242v-55.38h34.242v11.076h-21.684v12.168h19.89v8.814h-19.89v12.246h21.684zm23.352-13.728v13.728h-12.558v-55.38h21.762q6.63 0 10.998 2.34t6.474 7.02q2.184 4.602 2.184 11.466 0 6.708-2.184 11.388-2.106 4.602-6.474 7.02t-10.998 2.418zm0-31.746v21.84h8.892q3.588 0 5.46-2.808 1.95-2.808 1.95-8.112 0-3.432-.858-5.85-.858-2.496-2.574-3.744-1.638-1.326-3.978-1.326zm71.64 45.474h-32.916v-55.38h12.558v43.992h20.358zm142.407 0h-9.594l-7.098-52.026v-3.354h12.246l4.046 31.718 8.824-22.982h5.07l8.686 22.544 4.184-31.28h12.09v3.354l-7.02 52.026h-9.828l-10.53-25.506-.195-.626-.195.626zm82.081 0h-34.242v-55.38h34.242v11.076h-21.684v12.168h19.89v8.814h-19.89v12.246h21.684zm37.626 0h-26.832v-55.38h27.066q7.02 0 10.764 3.51 3.744 3.432 3.744 9.438 0 4.992-3.198 8.892-1.765 2.205-4.328 3.912 3.269 1.407 5.342 3.81 3.432 3.978 3.432 10.14 0 7.254-4.056 11.466t-11.934 4.212m-14.274-45.942v14.352h12.647a12.3 12.3 0 0 0 2.563-3.276 9.76 9.76 0 0 0 1.17-4.68q0-2.886-1.482-4.602-1.404-1.794-3.9-1.794zm0 22.152v14.04h11.856q2.808 0 4.212-1.716 1.482-1.794 1.482-5.148 0-3.432-1.482-5.304-1.186-1.56-3.22-1.872zM608.4 61.959v13.728h-12.558v-55.38h21.762q6.63 0 10.998 2.34t6.474 7.02q2.184 4.602 2.184 11.466 0 6.708-2.184 11.388-2.106 4.602-6.474 7.02t-10.998 2.418zm0-31.746v21.84h8.892q3.588 0 5.46-2.808 1.95-2.808 1.95-8.112 0-3.432-.858-5.85-.858-2.496-2.574-3.744-1.638-1.326-3.978-1.326zm173.781 45.474h-34.242v-55.38h34.242v11.076h-21.684v12.168h19.89v8.814h-19.89v12.246h21.684zm-453.646-9.594-3.053 9.594h-11.934v-2.73l17.784-52.65h12.48l17.55 52.416v2.964H348.96l-2.941-9.594zm14.998-8.112-6.091-19.874-6.325 19.874zm34.512-2.177-16.146-32.221v-3.276h11.544l10.609 24.476 10.685-24.476h11.466v3.354l-16.131 32.26.063 19.766h-12.09zm278.294 10.289-3.053 9.594h-11.934v-2.73l17.784-52.65h12.48l17.55 52.416v2.964h-12.402l-2.941-9.594zm14.998-8.112-6.091-19.874-6.325 19.874zm48.776 18.486q-8.268 0-13.884-2.886-5.616-2.964-8.502-9.282-2.886-6.396-2.886-16.458 0-9.516 3.042-15.756 3.12-6.318 9.126-9.438t14.82-3.12q6.786 0 13.806 1.716l-2.106 10.296a58.3 58.3 0 0 0-11.154-1.092q-5.07 0-8.424 1.872-3.276 1.794-4.992 5.694-1.638 3.9-1.638 10.14 0 6.396 1.326 10.374t4.056 5.85q2.73 1.794 7.098 1.794 2.262 0 4.758-.312V53.067l-8.424-2.028v-7.644h19.734v30.732a49.7 49.7 0 0 1-7.8 1.716 51 51 0 0 1-7.956.624M27.293 44.981a.996.996 0 0 1-.985-1.175c1.352-7.027 6.03-12.878 12.33-15.84a.496.496 0 0 1 .66.649c-1.707 4.136-2.876 9.482-3.238 15.425a1 1 0 0 1-.997.941zM56.75 28.616a.5.5 0 0 1 .664-.653c6.299 2.965 10.977 8.816 12.323 15.844a.995.995 0 0 1-.979 1.168c-1.98.006-5.952.006-7.77.006a1 1 0 0 1-.998-.941c-.361-5.943-1.53-11.289-3.24-15.424m12.008 22.365a1 1 0 0 1 .986 1.176c-1.353 7.027-6.031 12.877-12.331 15.84a.496.496 0 0 1-.66-.65c1.707-4.135 2.876-9.481 3.238-15.424a1 1 0 0 1 .997-.941zM39.301 67.346a.498.498 0 0 1-.664.653c-6.299-2.965-10.977-8.815-12.322-15.843a.993.993 0 0 1 .978-1.168c1.98-.007 5.952-.007 7.77-.007.529.001.967.413.998.942.361 5.943 1.53 11.289 3.24 15.423m2.775-15.3a1 1 0 0 1 .997-1.064l9.905-.001a1 1 0 0 1 .998 1.065c-.426 6.331-1.843 11.845-3.986 15.486-.506.86-1.091 1.633-1.654 2.121a.5.5 0 0 1-.621 0c-.563-.488-1.147-1.261-1.653-2.121-2.144-3.641-3.56-9.155-3.986-15.486m11.899-8.13a.997.997 0 0 1-.997 1.064l-9.905.001a1 1 0 0 1-.998-1.065c.427-6.33 1.843-11.844 3.987-15.486.506-.86 1.09-1.632 1.654-2.12a.5.5 0 0 1 .62-.001c.563.489 1.148 1.261 1.654 2.121 2.143 3.642 3.56 9.156 3.985 15.486"/><path d="M95.225 52.536c.353.196.554.584.51.985-2.746 23.894-23.064 42.476-47.688 42.476-24.771 0-45.185-18.805-47.732-42.905a.994.994 0 0 1 1.49-.952c2.168 1.257 5.838 3.396 7.174 4.175.313.182.699.181 1.011-.002l6.973-4.098a.998.998 0 0 1 1.494.712c2.349 14.216 14.712 25.07 29.59 25.07 14.833 0 27.167-10.789 29.574-24.941a1 1 0 0 1 .511-.715c1.491-.808 6.429-3.474 7.996-4.319.3-.162.661-.16.959.005zM.968 42.663a1 1 0 0 1-.508-1.001C3.566 18.16 23.702-.003 48.047-.003c24.452 0 44.659 18.323 47.625 41.977a.994.994 0 0 1-1.489.97c-2.156-1.25-5.749-3.345-7.068-4.114a1 1 0 0 0-1.011.002l-7.109 4.179a1 1 0 0 1-1.491-.688c-2.649-13.849-14.839-24.326-29.457-24.326-14.513 0-26.633 10.328-29.405 24.029a1 1 0 0 1-.505.684c-1.489.807-6.577 3.553-8.171 4.414a1 1 0 0 1-.959-.006z"/></g></svg>